# File created by Blade
# Date/Time:  Thu Jan 22 19:24:19 2015
# Frame Rate: 120.000 fps
#------------------------------------------------------
:FULLY-SPECIFIED
:DEGREES
2091
root 6.145570 31.883952 -3.210906 10.648020 7.374691 8.775201
RightUpLeg -23.349637 1.613893 2.779543
RightLeg 38.661455 -0.000000 -0.000000
RightFoot -28.291236 -14.312210 -2.726149
RightToeBase 1.301435 -0.000000 -0.000000
LeftUpLeg -0.600927 -10.749522 -22.150266
LeftLeg -1.805876 -0.000000 0.000000
LeftFoot -5.445862 -1.031881 -1.239009
LeftToeBase 4.962896 -0.000000 -0.000000
Spine -6.785090 -4.486862 36.116415
RightShoulder -12.543009 -15.176865 1.026577
RightArm 23.191150 -2.232201 62.353438
RightForeArm -8.705252 -0.000000 17.496793
RightHand 15.450206 -0.000000 -2.082523
RightHandThumb1 -24.326973 -0.000000 -32.862282
LeftShoulder -23.447425 -14.959884 61.373495
LeftArm 58.263787 -52.275241 -27.402486
LeftForeArm 9.616536 -0.000000 22.775800
LeftHand -0.062328 -0.000000 5.156071
LeftHandThumb1 -26.253704 0.000000 33.147579
Head -9.533524 5.228703 43.247737
2092
root 6.149352 31.884529 -3.209892 10.611474 7.419243 8.769043
RightUpLeg -23.317544 1.571780 2.782959
RightLeg 38.677247 -0.000000 -0.000000
RightFoot -28.268240 -14.359622 -2.851977
RightToeBase 1.426813 -0.000000 -0.000000
LeftUpLeg -0.577382 -10.724503 -22.143542
LeftLeg -1.762627 -0.000000 0.000000
LeftFoot -5.441425 -1.124316 -1.302952
LeftToeBase 4.955221 -0.000000 -0.000000
Spine -6.797404 -4.465806 36.147501
RightShoulder -12.572358 -15.255603 1.035212
RightArm 23.161944 -2.146398 62.337688
RightForeArm -8.736864 -0.000000 17.462753
RightHand 15.417846 -0.000000 -2.049273
RightHandThumb1 -24.326973 -0.000000 -32.862282
LeftShoulder -23.450415 -14.980624 61.392454
LeftArm 58.209472 -52.246325 -27.382968
LeftForeArm 9.768985 0.000000 22.748312
LeftHand -0.041554 0.000000 4.977431
LeftHandThumb1 -26.253704 0.000000 33.147579
Head -9.535214 5.174857 43.320192
2093
root 6.155050 31.884140 -3.208602 10.577807 7.466778 8.786415
RightUpLeg -23.270899 1.571356 2.751262
RightLeg 38.669131 -0.000000 -0.000000
RightFoot -28.267496 -14.400985 -2.896034
RightToeBase 1.495170 -0.000000 -0.000000
LeftUpLeg -0.548478 -10.695591 -22.165921
LeftLeg -1.724630 -0.000000 0.000000
LeftFoot -5.434844 -1.212908 -1.305842
LeftToeBase 4.917131 -0.000000 -0.000000
Spine -6.818985 -4.446018 36.154457
RightShoulder -12.612529 -15.338509 1.038446
RightArm 23.146653 -2.100290 62.314966
RightForeArm -8.719052 -0.000000 17.413427
RightHand 15.400141 -0.000000 -2.051453
RightHandThumb1 -24.326973 -0.000000 -32.862282
LeftShoulder -23.448396 -14.971648 61.397375
LeftArm 58.151708 -52.243723 -27.345167
LeftForeArm 9.800569 -0.000000 22.717543
LeftHand 0.042159 -0.000000 4.775731
LeftHandThumb1 -26.253704 0.000000 33.147579
Head -9.529231 5.111554 43.384575
2094
root 6.159658 31.883663 -3.208808 10.550237 7.508528 8.795648
RightUpLeg -23.252964 1.548950 2.740221
RightLeg 38.690743 -0.000000 -0.000000
RightFoot -28.242779 -14.426344 -2.919327
RightToeBase 1.560044 -0.000000 -0.000000
LeftUpLeg -0.526995 -10.695717 -22.180007
LeftLeg -1.694879 -0.000000 0.000000
LeftFoot -5.430769 -1.253332 -1.315897
LeftToeBase 4.873645 -0.000000 -0.000000
Spine -6.830606 -4.422725 36.162416
RightShoulder -12.644940 -15.418771 1.049762
RightArm 23.122195 -2.032754 62.295107
RightForeArm -8.729181 -0.000000 17.376806
RightHand 15.400241 -0.000000 -1.989417
RightHandThumb1 -24.326973 -0.000000 -32.862282
LeftShoulder -23.455697 -15.019178 61.422848
LeftArm 57.993319 -52.195605 -27.186978
LeftForeArm 9.791647 -0.000000 22.698999
LeftHand 0.068194 -0.000000 4.602478
LeftHandThumb1 -26.253704 0.000000 33.147579
Head -9.536906 5.059702 43.444126
2095
root 6.165092 31.883455 -3.209929 10.532017 7.534347 8.800804
RightUpLeg -23.244974 1.514411 2.740932
RightLeg 38.701486 -0.000000 -0.000000
RightFoot -28.214739 -14.455907 -2.878651
RightToeBase 1.529667 -0.000000 -0.000000
LeftUpLeg -0.518707 -10.683712 -22.192190
LeftLeg -1.663450 -0.000000 0.000000
LeftFoot -5.430924 -1.289860 -1.296891
LeftToeBase 4.865108 -0.000000 -0.000000
Spine -6.840949 -4.381943 36.175382
RightShoulder -12.673790 -15.480579 1.049859
RightArm 23.077191 -1.940491 62.297365
RightForeArm -8.798105 0.000000 17.344589
RightHand 15.379125 -0.000000 -1.963698
RightHandThumb1 -24.326973 -0.000000 -32.862282
LeftShoulder -23.457251 -15.016836 61.428407
LeftArm 57.912225 -52.218524 -27.119274
LeftForeArm 9.683075 -0.000000 22.686925
LeftHand 0.108446 -0.000000 4.567687
LeftHandThumb1 -26.253704 0.000000 33.147579
Head -9.545361 5.007317 43.478321
2096
root 6.170551 31.882740 -3.211876 10.507826 7.551052 8.805633
RightUpLeg -23.238753 1.513212 2.729700
RightLeg 38.731240 -0.000000 -0.000000
RightFoot -28.199870 -14.475131 -2.902239
RightToeBase 1.560627 -0.000000 -0.000000
LeftUpLeg -0.508893 -10.656247 -22.208132
LeftLeg -1.632220 -0.000000 0.000000
LeftFoot -5.436091 -1.333302 -1.302000
LeftToeBase 4.848378 -0.000000 -0.000000
Spine -6.833798 -4.358077 36.186332
RightShoulder -12.691941 -15.538547 1.046679
RightArm 23.034992 -1.856735 62.297947
RightForeArm -8.895853 -0.000000 17.345587
RightHand 15.307307 -0.000000 -1.872536
RightHandThumb1 -24.326973 -0.000000 -32.862282
LeftShoulder -23.452962 -15.029991 61.424767
LeftArm 57.885932 -52.281942 -27.119834
LeftForeArm 9.749503 -0.000000 22.695321
LeftHand 0.160333 -0.000000 4.330495
LeftHandThumb1 -26.253704 0.000000 33.147579
Head -9.562749 5.001559 43.509921
2097
root 6.176257 31.881294 -3.215152 10.489813 7.553072 8.810346
RightUpLeg -23.240400 1.543001 2.705007
RightLeg 38.767572 -0.000000 -0.000000
RightFoot -28.215083 -14.469831 -2.896189
RightToeBase 1.566245 -0.000000 -0.000000
LeftUpLeg -0.506536 -10.625512 -22.226754
LeftLeg -1.604689 -0.000000 0.000000
LeftFoot -5.442755 -1.353303 -1.279239
LeftToeBase 4.831415 -0.000000 -0.000000
Spine -6.814519 -4.328285 36.192276
RightShoulder -12.710587 -15.555983 1.036061
RightArm 22.980164 -1.805654 62.299858
RightForeArm -8.897425 -0.000000 17.316611
RightHand 15.347732 -0.000000 -1.815149
RightHandThumb1 -24.326973 -0.000000 -32.862282
LeftShoulder -23.458288 -15.032642 61.433965
LeftArm 57.813350 -52.347217 -27.068965
LeftForeArm 9.716641 -0.000000 22.697312
LeftHand 0.223203 -0.000000 4.139381
LeftHandThumb1 -26.253704 0.000000 33.147579
Head -9.585832 4.997002 43.530521
2098
root 6.182081 31.880213 -3.218604 10.472278 7.540991 8.814640
RightUpLeg -23.244571 1.556533 2.689488
RightLeg 38.807701 -0.000000 -0.000000
RightFoot -28.225216 -14.497559 -2.871706
RightToeBase 1.815275 -0.000000 -0.000000
LeftUpLeg -0.510675 -10.566132 -22.248111
LeftLeg -1.574544 -0.000000 0.000000
LeftFoot -5.448066 -1.392905 -1.254312
LeftToeBase 4.791232 -0.000000 -0.000000
Spine -6.784835 -4.311306 36.198815
RightShoulder -12.718888 -15.589887 1.034954
RightArm 22.951878 -1.783162 62.275834
RightForeArm -8.869645 -0.000000 17.298085
RightHand 15.306698 -0.000000 -1.832132
RightHandThumb1 -24.326973 -0.000000 -32.862282
LeftShoulder -23.465496 -15.038503 61.432771
LeftArm 57.706454 -52.415953 -26.970479
LeftForeArm 9.580057 -0.000000 22.720598
LeftHand 0.244590 -0.000000 4.160222
LeftHandThumb1 -26.253704 0.000000 33.147579
Head -9.607104 5.017202 43.537572
2099
root 6.188559 31.878963 -3.223305 10.461046 7.520525 8.816235
RightUpLeg -23.267423 1.555161 2.680963
RightLeg 38.853964 -0.000000 -0.000000
RightFoot -28.223234 -14.512289 -2.855106
RightToeBase 1.746773 -0.000000 -0.000000
LeftUpLeg -0.524481 -10.528248 -22.267093
LeftLeg -1.547182 -0.000000 0.000000
LeftFoot -5.457450 -1.405132 -1.239983
LeftToeBase 4.847895 -0.000000 -0.000000
Spine -6.755503 -4.306663 36.212100
RightShoulder -12.709385 -15.627691 1.017501
RightArm 22.937282 -1.780491 62.247241
RightForeArm -8.801606 -0.000000 17.281926
RightHand 15.260320 0.000000 -1.805332
RightHandThumb1 -24.326973 -0.000000 -32.862282
LeftShoulder -23.480652 -15.068187 61.444741
LeftArm 57.588092 -52.459030 -26.871690
LeftForeArm 9.561414 0.000000 22.749259
LeftHand 0.327272 0.000000 3.905543
LeftHandThumb1 -26.253704 0.000000 33.147579
Head -9.607498 5.057598 43.530818
2100
root 6.194864 31.877033 -3.228105 10.453002 7.477082 8.820640
RightUpLeg -23.290180 1.621436 2.645214
RightLeg 38.902311 -0.000000 -0.000000
RightFoot -28.248928 -14.484312 -2.836406
RightToeBase 1.765341 -0.000000 -0.000000
LeftUpLeg -0.533174 -10.490380 -22.291233
LeftLeg -1.546266 -0.000000 0.000000
LeftFoot -5.450672 -1.399822 -1.232744
LeftToeBase 4.833569 -0.000000 -0.000000
Spine -6.715290 -4.296447 36.212813
RightShoulder -12.700169 -15.630612 1.000109
RightArm 22.910071 -1.790190 62.229557
RightForeArm -8.865037 -0.000000 17.261851
RightHand 15.171165 -0.000000 -1.971515
RightHandThumb1 -24.326973 -0.000000 -32.862282
LeftShoulder -23.502415 -15.076883 61.445130
LeftArm 57.558729 -52.526522 -26.859082
LeftForeArm 9.556352 -0.000000 22.779424
LeftHand 0.390208 0.000000 3.788591
LeftHandThumb1 -26.253704 0.000000 33.147579
Head -9.604120 5.094898 43.527070
2101
root 6.200682 31.875567 -3.234820 10.447621 7.438578 8.816126
RightUpLeg -23.326476 1.605840 2.648682
RightLeg 38.957845 -0.000000 -0.000000
RightFoot -28.248811 -14.481184 -2.790004
RightToeBase 1.742966 -0.000000 -0.000000
LeftUpLeg -0.549303 -10.478975 -22.303420
LeftLeg -1.544319 -0.000000 0.000000
LeftFoot -5.452828 -1.376347 -1.209576
LeftToeBase 4.793171 -0.000000 -0.000000
Spine -6.673494 -4.296922 36.225059
RightShoulder -12.685446 -15.635009 0.985602
RightArm 22.901048 -1.809764 62.185955
RightForeArm -8.777802 -0.000000 17.230966
RightHand 15.315495 -0.000000 -1.638268
RightHandThumb1 -24.326973 -0.000000 -32.862282
LeftShoulder -23.518776 -15.094774 61.450058
LeftArm 57.523349 -52.606903 -26.841642
LeftForeArm 9.416573 -0.000000 22.807360
LeftHand 0.407798 -0.000000 3.987148
LeftHandThumb1 -26.253704 0.000000 33.147579
Head -9.599791 5.143084 43.519914
